<svg width="313" height="253" viewBox="0 0 313 253" fill="none" xmlns="http://www.w3.org/2000/svg">
<g opacity="0.8">
<path d="M229.19 194.954C228.94 190.646 229.058 186.325 229.542 182.038C232.373 161.243 235.203 155.889 235.203 155.889L273.863 154.622C273.863 154.622 277.656 174.972 279.223 194.954H229.19Z" fill="#231F20"/>
<path d="M229.19 195.314H279.239C279.29 195.315 279.34 195.304 279.386 195.284C279.432 195.264 279.473 195.234 279.507 195.197C279.544 195.16 279.572 195.115 279.59 195.066C279.607 195.016 279.613 194.964 279.608 194.912C278.05 175.148 274.273 154.756 274.239 154.546C274.222 154.459 274.174 154.382 274.106 154.327C274.037 154.271 273.951 154.242 273.863 154.244L235.195 155.511C235.13 155.511 235.065 155.529 235.009 155.563C234.953 155.597 234.907 155.646 234.877 155.704C234.76 155.922 231.988 161.352 229.182 181.979C228.685 186.288 228.565 190.632 228.822 194.962C228.826 195.057 228.867 195.147 228.935 195.212C229.004 195.278 229.095 195.314 229.19 195.314ZM278.837 194.576H229.542C229.313 190.405 229.436 186.222 229.911 182.072C232.423 163.685 234.936 157.357 235.438 156.241L273.569 155.033C274.047 157.634 277.38 176.315 278.837 194.584V194.576Z" fill="#231F20"/>
<path d="M220.321 138.031C220.321 138.031 199.467 134.279 193.019 130.746C193.019 130.746 189.493 122.9 188.262 123.059C187.031 123.219 189.769 129.345 189.769 129.345C189.769 129.345 181.645 125.518 179.46 124.469C178.859 124.083 178.133 123.945 177.433 124.083C177.508 125.065 178.354 125.762 179.158 126.332C180.422 127.229 181.736 128.053 183.094 128.799C183.101 130.037 183.179 131.272 183.329 132.5C183.719 133.837 184.406 135.068 185.339 136.1C187.332 138.299 190.364 139.105 193.019 140.296C198.546 142.755 225.229 156.04 225.229 156.04L220.321 138.031Z" fill="white"/>
<path d="M225.229 156.401C225.317 156.404 225.404 156.374 225.472 156.317C225.529 156.27 225.571 156.208 225.595 156.139C225.619 156.069 225.622 155.994 225.606 155.922L220.69 137.93C220.671 137.86 220.633 137.796 220.58 137.747C220.526 137.698 220.46 137.665 220.388 137.653C220.187 137.653 199.76 133.919 193.32 130.469C191.947 127.432 189.493 122.531 188.22 122.673C188.107 122.686 187.999 122.727 187.906 122.791C187.813 122.856 187.736 122.942 187.684 123.043C187.181 123.949 188.278 126.852 189.007 128.564C186.813 127.532 181.361 124.956 179.627 124.125C178.937 123.69 178.103 123.545 177.307 123.722C177.228 123.751 177.16 123.806 177.115 123.877C177.07 123.948 177.049 124.032 177.056 124.117C177.14 125.241 178.052 126.03 178.932 126.634C180.154 127.494 181.421 128.29 182.726 129.018C182.727 130.21 182.805 131.402 182.96 132.584C183.366 133.982 184.085 135.267 185.062 136.344C186.654 138.106 188.881 138.996 191.034 139.852C191.653 140.103 192.273 140.347 192.868 140.607C198.32 143.041 224.793 156.216 225.061 156.35C225.113 156.379 225.17 156.396 225.229 156.401ZM220.02 138.366L224.643 155.301C220.229 153.103 198.119 142.126 193.178 139.927C192.575 139.659 191.947 139.407 191.318 139.155C189.241 138.316 187.131 137.477 185.623 135.798C184.726 134.811 184.064 133.631 183.689 132.349C183.613 132.047 183.454 129.244 183.463 128.841C183.466 128.813 183.466 128.785 183.463 128.757C183.463 128.688 183.444 128.621 183.409 128.561C183.374 128.502 183.323 128.454 183.262 128.422C181.917 127.68 180.614 126.865 179.359 125.98C178.709 125.601 178.189 125.033 177.868 124.352C178.366 124.378 178.851 124.522 179.284 124.771C181.469 125.82 189.593 129.655 189.593 129.655C189.665 129.688 189.745 129.698 189.822 129.685C189.899 129.671 189.971 129.633 190.026 129.578C190.082 129.522 190.119 129.45 190.133 129.373C190.147 129.295 190.137 129.215 190.104 129.143C188.881 126.466 188.052 123.764 188.337 123.37C188.94 123.504 191.076 127.339 192.658 130.864C192.693 130.937 192.748 130.999 192.818 131.04C198.965 134.439 217.574 137.922 220.02 138.366Z" fill="#231F20"/>
<path d="M267.606 101.458C269.549 98.3113 267.749 80.3105 265.194 75.9047C261.727 69.938 252.565 65.4315 245.848 67.9994C238.855 70.6681 236.728 78.909 236.435 85.6897C236.2 91.1194 236.954 96.5406 237.708 101.928C246.853 105.1 258.586 104.975 267.606 101.458Z" fill="white"/>
<path d="M252.004 104.589C257.377 104.635 262.713 103.697 267.749 101.819C267.826 101.788 267.891 101.732 267.933 101.66C269.884 98.5043 268.193 80.3441 265.488 75.7117C262.054 69.8373 252.649 64.9783 245.681 67.6386C237.825 70.6429 236.259 80.2266 236.016 85.673C235.773 91.1194 236.552 96.6581 237.297 101.987C237.306 102.056 237.334 102.122 237.378 102.175C237.423 102.229 237.482 102.269 237.549 102.289C242.208 103.848 247.092 104.625 252.004 104.589ZM267.347 101.148C258.57 104.505 247.121 104.723 238.034 101.643C237.306 96.4315 236.569 91.0354 236.803 85.6981C237.038 80.3608 238.528 71.1884 246.016 68.3435C252.64 65.8259 261.602 70.4247 264.885 76.0893C267.355 80.386 269.064 97.9001 267.347 101.148Z" fill="#231F20"/>
<path d="M233.152 112.989L215.02 136.277C215.02 136.277 216.075 141.505 223.822 158.935C230.647 155.536 242.875 134.002 242.875 134.002L233.152 112.989Z" fill="#68E1FD"/>
<path d="M251.074 104.53C251.074 104.53 236.049 106.208 232.507 113.467C228.964 120.726 229.91 163.937 229.91 163.937L278.268 165.011C278.268 165.011 280.194 121.423 273.98 110.127C271.618 103.749 265.353 103.749 251.074 104.53Z" fill="#68E1FD"/>
<path d="M259.935 105.327L258.788 164.709L243.671 163.995L246.627 108.214L259.935 105.327Z" fill="white"/>
<path d="M246.677 99.4274L246.627 108.214C246.627 108.214 247.515 113.123 252.85 111.629C254.424 111.172 255.876 110.369 257.102 109.279C258.328 108.189 259.295 106.839 259.935 105.327L259.332 90.1123C258.629 87.4536 258.332 84.7032 258.453 81.9553C251.97 81.8546 246.87 76.9201 246.87 76.9201C246.87 76.9201 244.642 80.2769 243.671 81.3343C242.896 82.1283 242.224 83.0164 241.669 83.9778C240.765 85.6562 240.832 87.7877 240.832 89.6508C240.852 91.873 241.07 94.0889 241.485 96.272C242.364 100.485 246.677 99.4274 246.677 99.4274Z" fill="white"/>
<path d="M250.949 112.301C251.626 112.293 252.3 112.191 252.95 111.999C254.586 111.531 256.095 110.701 257.366 109.569C258.638 108.437 259.639 107.033 260.295 105.461C260.307 105.412 260.307 105.36 260.295 105.31C260.295 105.31 259.7 90.2046 259.692 90.1039C259.664 89.8427 259.613 89.5845 259.541 89.3319C258.931 86.9262 258.677 84.4435 258.788 81.9637C258.79 81.9131 258.783 81.8626 258.765 81.815C258.748 81.7674 258.721 81.7238 258.687 81.6868C258.611 81.6178 258.513 81.5764 258.411 81.5693C252.163 81.477 247.138 76.7271 247.088 76.6767C247.048 76.6384 247 76.6088 246.948 76.5901C246.897 76.5713 246.841 76.5636 246.786 76.5677C246.73 76.5737 246.675 76.5927 246.627 76.6233C246.579 76.6539 246.539 76.6951 246.51 76.7439C246.51 76.7439 244.282 80.1007 243.344 81.1077C242.548 81.9281 241.856 82.8443 241.284 83.8351C240.329 85.631 240.379 87.8884 240.446 89.7095C240.461 91.9634 240.685 94.211 241.116 96.4231C241.208 96.9981 241.416 97.5482 241.729 98.039C242.042 98.5299 242.452 98.9511 242.934 99.2764C243.948 99.8588 245.126 100.086 246.284 99.9226L246.233 108.256C246.501 109.638 247.298 110.861 248.453 111.663C249.207 112.109 250.073 112.331 250.949 112.301ZM259.55 105.268C258.919 106.704 257.983 107.984 256.806 109.019C255.63 110.054 254.243 110.819 252.741 111.26C252.114 111.49 251.445 111.583 250.78 111.534C250.114 111.484 249.466 111.294 248.88 110.975C247.922 110.302 247.252 109.292 247.004 108.147L247.063 99.4274C247.063 99.3696 247.05 99.3124 247.026 99.2601C247.001 99.2079 246.965 99.1618 246.92 99.1253C246.874 99.0909 246.821 99.0664 246.765 99.0534C246.708 99.0404 246.65 99.0392 246.594 99.0498C245.492 99.2839 244.343 99.1173 243.352 98.5798C242.959 98.31 242.626 97.9622 242.372 97.558C242.119 97.1539 241.951 96.7019 241.878 96.2301C241.463 94.0698 241.244 91.876 241.225 89.6759C241.225 87.8717 241.141 85.8156 242.004 84.196C242.545 83.2614 243.2 82.3987 243.955 81.628C244.751 80.7888 246.326 78.4391 246.937 77.5327C248.168 78.6069 252.557 82.0896 258.059 82.3329C257.967 84.754 258.221 87.1758 258.813 89.5249C258.872 89.7227 258.917 89.9247 258.947 90.1291C258.947 90.1291 258.955 90.4144 259.55 105.268Z" fill="#231F20"/>
<path d="M246.728 103.741C246.728 103.741 250.287 103.9 252.59 101.525C253.242 100.92 253.755 100.179 254.092 99.3538C254.429 98.5291 254.582 97.6406 254.541 96.7504C254.541 96.7504 250.697 99.3351 246.694 99.4274L246.728 103.741Z" fill="#231F20"/>
<path d="M246.887 104.119C249.098 104.134 251.231 103.296 252.841 101.777C253.533 101.133 254.075 100.344 254.43 99.4669C254.784 98.5897 254.943 97.6452 254.893 96.7C254.884 96.6378 254.859 96.579 254.821 96.5291C254.783 96.4791 254.733 96.4398 254.675 96.4147C254.621 96.386 254.561 96.3711 254.5 96.3711C254.438 96.3711 254.378 96.386 254.324 96.4147C254.324 96.4147 250.513 98.9323 246.669 99.033C246.573 99.0352 246.481 99.0751 246.414 99.1441C246.346 99.2131 246.309 99.3058 246.309 99.4023L246.359 103.724C246.361 103.818 246.398 103.907 246.464 103.974C246.529 104.041 246.617 104.081 246.711 104.085L246.887 104.119ZM254.165 97.405C254.029 98.8724 253.372 100.242 252.314 101.265C250.891 102.585 249.034 103.335 247.096 103.372L247.054 99.7799C249.572 99.5318 252.002 98.7201 254.165 97.405Z" fill="#231F20"/>
<path d="M249.784 86.8059C249.784 86.8059 246.962 91.0019 247.632 91.7571C248.302 92.5124 250.145 92.0089 250.145 92.0089" fill="white"/>
<path d="M248.939 92.5376C249.388 92.5353 249.835 92.4761 250.27 92.3614C250.32 92.352 250.367 92.3326 250.409 92.3042C250.45 92.2758 250.486 92.2391 250.513 92.1964C250.54 92.1537 250.558 92.1059 250.566 92.056C250.574 92.006 250.571 91.9549 250.559 91.906C250.546 91.857 250.524 91.8112 250.492 91.7713C250.461 91.7314 250.423 91.6984 250.378 91.6742C250.334 91.65 250.285 91.6352 250.235 91.6307C250.184 91.6262 250.134 91.6321 250.086 91.6481C249.441 91.8075 248.285 91.9166 247.908 91.5054C247.724 91.1361 248.746 88.9878 250.094 87.0073C250.149 86.9249 250.168 86.8243 250.149 86.7275C250.129 86.6307 250.072 86.5457 249.99 86.4912C249.907 86.4366 249.807 86.4171 249.71 86.4367C249.614 86.4564 249.529 86.5137 249.475 86.5961C248.361 88.2745 246.602 91.1865 247.364 92.0089C247.577 92.1991 247.827 92.3441 248.097 92.4349C248.368 92.5258 248.654 92.5607 248.939 92.5376Z" fill="#231F20"/>
<path d="M245.75 86.9723C245.482 86.9618 245.281 86.544 245.3 86.0392C245.32 85.5344 245.553 85.1337 245.822 85.1443C246.09 85.1548 246.291 85.5726 246.271 86.0774C246.251 86.5822 246.018 86.9829 245.75 86.9723Z" fill="#231F20"/>
<path d="M252.435 86.1365C252.167 86.126 251.966 85.7082 251.986 85.2034C252.006 84.6986 252.239 84.2979 252.507 84.3085C252.775 84.319 252.976 84.7368 252.957 85.2416C252.937 85.7464 252.703 86.1471 252.435 86.1365Z" fill="#231F20"/>
<path d="M247.9 94.2328L250.145 93.6621C250.145 93.6621 250.605 96.9434 249.307 97.2371C248.009 97.5308 247.9 94.2328 247.9 94.2328Z" fill="white"/>
<path d="M249.148 97.6232C249.226 97.6314 249.304 97.6314 249.382 97.6232C250.907 97.2791 250.563 94.2664 250.471 93.6369C250.467 93.5841 250.45 93.5329 250.423 93.4877C250.395 93.4425 250.357 93.4045 250.312 93.3768C250.27 93.348 250.221 93.3286 250.171 93.3199C250.12 93.3112 250.069 93.3134 250.019 93.3264L247.774 93.9055C247.69 93.9251 247.616 93.9736 247.564 94.0426C247.512 94.1116 247.485 94.1967 247.49 94.2831C247.49 94.5349 247.649 96.8007 248.537 97.4385C248.714 97.5668 248.929 97.6317 249.148 97.6232ZM249.784 94.1237C249.885 95.2818 249.784 96.742 249.223 96.8763C249.181 96.885 249.137 96.8843 249.095 96.8741C249.053 96.864 249.014 96.8446 248.98 96.8175C248.57 96.507 248.336 95.3489 248.26 94.5181L249.784 94.1237Z" fill="#231F20"/>
<path d="M229.777 154.915C229.861 154.915 229.943 154.886 230.009 154.832C230.074 154.779 230.119 154.704 230.137 154.622L238.327 116.975C238.347 116.878 238.329 116.778 238.276 116.694C238.222 116.611 238.139 116.552 238.043 116.53C237.947 116.51 237.848 116.529 237.766 116.583C237.684 116.636 237.627 116.72 237.607 116.816L229.416 154.462C229.396 154.559 229.415 154.66 229.468 154.743C229.521 154.826 229.605 154.885 229.701 154.907L229.777 154.915Z" fill="#231F20"/>
<path d="M273.98 110.127C273.98 110.127 285.73 134.053 290.612 141.001C295.495 147.95 295.939 160.018 295.939 160.018L281.207 158.943C281.207 158.943 267.707 136.956 263.871 131.426L273.98 110.127Z" fill="#68E1FD"/>
<path d="M268.427 167.545L257.766 134.699L236.544 137.77L246.032 172.505L268.427 167.545Z" fill="#231F20"/>
<path d="M246.032 172.874H246.108L268.511 167.914C268.612 167.886 268.699 167.82 268.754 167.73C268.775 167.684 268.786 167.634 268.786 167.583C268.786 167.532 268.775 167.482 268.754 167.436L258.084 134.59C258.057 134.507 258.002 134.437 257.929 134.391C257.855 134.345 257.768 134.326 257.682 134.338L236.485 137.41C236.434 137.418 236.385 137.438 236.341 137.467C236.298 137.495 236.261 137.533 236.234 137.577C236.205 137.621 236.185 137.671 236.177 137.723C236.168 137.775 236.17 137.828 236.183 137.88L245.672 172.614C245.696 172.691 245.744 172.758 245.809 172.805C245.874 172.851 245.952 172.876 246.032 172.874ZM267.95 167.268L246.292 172.069L237.013 138.073L257.515 135.11L267.95 167.268Z" fill="#231F20"/>
<path d="M283.779 149.158C276.744 147.967 268.704 149.528 261.719 150.275C257.397 150.744 253.118 152.012 248.738 151.668C246.962 151.533 245.823 151.475 244.282 150.526C242.264 149.284 240.254 148.009 238.244 146.767C238.196 147.436 238.275 148.108 238.478 148.747C237.641 148.747 236.602 148.747 236.041 149.41C235.48 150.073 235.639 151.172 235.874 152.07C236.828 155.755 239.131 157.785 242.825 158.868C245.387 159.504 248.016 159.831 250.655 159.841C257.188 160.127 263.67 160.295 270.178 160.723C276.908 161.214 283.658 161.365 290.403 161.176C291.023 161.176 296.056 161.234 295.964 159.992" fill="white"/>
<path d="M284.934 161.679C286.81 161.679 288.628 161.679 290.412 161.579H290.713C293.879 161.579 295.545 161.251 296.115 160.63C296.196 160.546 296.259 160.446 296.299 160.336C296.34 160.226 296.357 160.109 296.349 159.992C296.343 159.89 296.296 159.795 296.219 159.727C296.181 159.693 296.136 159.668 296.088 159.651C296.04 159.635 295.99 159.628 295.939 159.632C295.888 159.635 295.839 159.648 295.793 159.671C295.748 159.693 295.707 159.724 295.674 159.762C295.641 159.801 295.615 159.845 295.599 159.893C295.582 159.941 295.576 159.992 295.579 160.043C295.328 160.353 294.398 160.765 290.705 160.806H290.386C283.655 161.001 276.919 160.853 270.203 160.362C265.714 160.06 261.158 159.883 256.752 159.716C254.734 159.64 252.699 159.564 250.672 159.472C248.061 159.465 245.46 159.143 242.925 158.515C239.19 157.416 237.13 155.41 236.225 151.995C235.999 151.156 235.848 150.224 236.317 149.67C236.614 149.436 236.957 149.268 237.324 149.178C237.691 149.088 238.074 149.078 238.445 149.15C238.505 149.149 238.565 149.136 238.62 149.11C238.675 149.084 238.724 149.046 238.763 148.999C238.801 148.95 238.826 148.892 238.836 148.83C238.847 148.769 238.842 148.705 238.822 148.646C238.703 148.265 238.63 147.87 238.604 147.472L240.036 148.361C241.376 149.2 242.719 150.04 244.064 150.879C245.421 151.672 246.966 152.081 248.537 152.062H248.687C251.63 152.17 254.575 151.917 257.456 151.307C258.863 151.063 260.32 150.82 261.744 150.669C263.168 150.518 264.667 150.325 266.174 150.132C272.037 149.385 278.159 148.613 283.703 149.544C283.753 149.553 283.803 149.551 283.852 149.539C283.901 149.528 283.947 149.507 283.988 149.477C284.028 149.447 284.063 149.41 284.089 149.366C284.115 149.323 284.132 149.275 284.139 149.226C284.147 149.176 284.146 149.126 284.135 149.078C284.124 149.029 284.103 148.983 284.074 148.943C284.045 148.902 284.009 148.868 283.967 148.841C283.925 148.815 283.878 148.797 283.829 148.789C278.176 147.832 272.028 148.613 266.074 149.368C264.575 149.561 263.101 149.754 261.669 149.905C260.236 150.056 258.746 150.308 257.33 150.551C254.51 151.148 251.627 151.399 248.746 151.298H248.595C247.146 151.331 245.716 150.959 244.466 150.224C243.118 149.385 241.778 148.546 240.446 147.707L238.428 146.448C238.37 146.417 238.305 146.401 238.239 146.401C238.174 146.401 238.109 146.417 238.051 146.448C237.994 146.478 237.945 146.522 237.91 146.577C237.875 146.631 237.854 146.694 237.85 146.758C237.811 147.301 237.848 147.846 237.959 148.378C237.549 148.351 237.139 148.412 236.755 148.557C236.371 148.702 236.022 148.927 235.731 149.217C235.044 150.056 235.204 151.147 235.488 152.23C236.435 155.88 238.729 158.104 242.699 159.288C245.29 159.941 247.95 160.274 250.622 160.278L256.71 160.53C261.107 160.697 265.655 160.865 270.111 161.167C275.638 161.495 280.454 161.679 284.934 161.679Z" fill="#231F20"/>
<path d="M274.181 147.018C274.231 147.026 274.282 147.026 274.332 147.018C274.421 146.976 274.49 146.901 274.524 146.809C274.559 146.716 274.556 146.614 274.516 146.523L264.39 124.385C264.348 124.296 264.273 124.226 264.181 124.192C264.089 124.157 263.986 124.16 263.896 124.201C263.807 124.243 263.738 124.318 263.703 124.41C263.669 124.503 263.672 124.605 263.712 124.696L273.863 146.8C273.892 146.861 273.937 146.914 273.992 146.952C274.048 146.99 274.113 147.013 274.181 147.018Z" fill="#231F20"/>
<path d="M256.401 85.6058C256.733 84.5127 257.29 83.501 258.034 82.6351C258.416 82.2079 258.918 81.9065 259.474 81.7702C260.03 81.6339 260.614 81.6692 261.149 81.8714C262.28 82.4337 262.657 83.8687 262.648 85.1275C262.612 86.5571 262.355 87.9725 261.886 89.3235C261.68 90.146 261.265 90.9007 260.68 91.5138C260.384 91.8145 259.998 92.01 259.581 92.0706C259.164 92.1312 258.738 92.0535 258.369 91.8495" fill="white"/>
<path d="M259.223 92.504C259.845 92.4805 260.439 92.2367 260.898 91.8159C261.53 91.1562 261.98 90.3438 262.205 89.4577C262.695 88.0654 262.961 86.6037 262.992 85.1275C262.992 84.2883 262.824 82.2994 261.317 81.5357C260.71 81.2975 260.045 81.2502 259.411 81.4001C258.776 81.5501 258.202 81.8901 257.766 82.3749C256.985 83.2844 256.398 84.3438 256.041 85.4883C256.005 85.584 256.009 85.6899 256.052 85.7826C256.094 85.8754 256.171 85.9476 256.267 85.9835C256.361 86.0171 256.465 86.0132 256.557 85.9726C256.649 85.9321 256.722 85.8579 256.761 85.7653C257.076 84.7201 257.604 83.7516 258.31 82.9204C258.636 82.552 259.065 82.2903 259.542 82.1691C260.018 82.0479 260.52 82.0728 260.982 82.2406C262.179 82.8281 262.272 84.6156 262.272 85.1443C262.234 86.5403 261.98 87.922 261.518 89.2395C261.333 89.9951 260.955 90.6893 260.421 91.2536C260.186 91.4923 259.882 91.6495 259.552 91.7023C259.222 91.7552 258.884 91.7009 258.587 91.5473C258.545 91.5186 258.498 91.4985 258.448 91.488C258.399 91.4775 258.347 91.477 258.298 91.4863C258.248 91.4957 258.2 91.5148 258.158 91.5425C258.116 91.5703 258.079 91.6061 258.051 91.6481C258.022 91.6893 258.002 91.7357 257.992 91.7847C257.981 91.8337 257.981 91.8843 257.99 91.9335C258 91.9827 258.019 92.0295 258.046 92.0713C258.074 92.1131 258.109 92.1489 258.151 92.1767C258.466 92.3937 258.841 92.508 259.223 92.504Z" fill="#231F20"/>
<path d="M298.887 63.5097H275.621V73.7227H298.887V63.5097Z" fill="white"/>
<path d="M298.887 74.1424H275.621C275.51 74.1424 275.404 74.0982 275.325 74.0195C275.247 73.9408 275.203 73.834 275.203 73.7228V63.5097C275.203 63.3984 275.247 63.2917 275.325 63.213C275.404 63.1343 275.51 63.0901 275.621 63.0901H298.887C298.998 63.0901 299.105 63.1343 299.183 63.213C299.262 63.2917 299.306 63.3984 299.306 63.5097V73.7228C299.304 73.8334 299.259 73.9389 299.181 74.0171C299.103 74.0953 298.997 74.1402 298.887 74.1424ZM276.04 73.3032H298.468V63.9293H276.04V73.3032Z" fill="#D1D3D4"/>
<path d="M279.348 65.8511H280.546V70.2736H282.815V71.4066H279.348V65.8511Z" fill="#D1D3D4"/>
<path d="M283.511 65.8511H284.733V71.4233H283.511V65.8511Z" fill="#D1D3D4"/>
<path d="M285.294 65.8511H286.693L288.083 69.5016L289.482 65.8511H290.797L288.502 71.4233H287.522L285.294 65.8511Z" fill="#D1D3D4"/>
<path d="M291.433 65.8511H295.202V66.984H292.69V68.0246H295.102V69.1575H292.656V70.2736H295.344V71.4066H291.433V65.8511Z" fill="#D1D3D4"/>
<path d="M246.032 172.874H246.108L268.511 167.915C268.607 167.892 268.691 167.833 268.744 167.75C268.797 167.667 268.816 167.566 268.796 167.47C268.774 167.373 268.715 167.29 268.632 167.236C268.549 167.183 268.448 167.164 268.352 167.184L246.284 172.077L242.649 160.118C242.62 160.024 242.555 159.945 242.468 159.898C242.424 159.875 242.377 159.861 242.329 159.856C242.28 159.851 242.231 159.856 242.184 159.871C242.137 159.885 242.094 159.909 242.056 159.94C242.018 159.971 241.987 160.009 241.964 160.052C241.941 160.096 241.927 160.143 241.922 160.192C241.918 160.24 241.923 160.29 241.937 160.337L245.672 172.656C245.703 172.725 245.754 172.783 245.818 172.822C245.883 172.861 245.957 172.879 246.032 172.874Z" fill="white"/>
</g>
</svg>
